<svg width="50" height="43" viewBox="0 0 50 43" fill="none" xmlns="http://www.w3.org/2000/svg">
<path d="M45.366 26.0585C42.5612 37.1446 31.1667 43.8915 19.9152 41.1269C8.66833 38.363 1.82163 27.134 4.62777 16.0485C7.43129 4.96116 18.8258 -1.78632 30.074 0.977599C41.3248 3.74152 48.1709 14.9718 45.366 26.0585Z" fill="#F7931A"/>
<path d="M34.2556 18.1043C34.6736 15.3508 32.546 13.8705 29.6369 12.883L30.5805 9.15294L28.2764 8.5871L27.3577 12.2189C26.752 12.0701 26.1298 11.9298 25.5116 11.7908L26.437 8.13506L24.1342 7.56921L23.1898 11.298C22.6884 11.1855 22.1963 11.0742 21.7185 10.9572L21.7211 10.9456L18.5436 10.1637L17.9306 12.5888C17.9306 12.5888 19.6402 12.9748 19.6041 12.9988C20.5373 13.2283 20.7059 13.8369 20.6777 14.3193L19.6027 18.5686C19.6671 18.5848 19.7504 18.6081 19.8423 18.6443C19.7655 18.6256 19.6835 18.6049 19.5988 18.5848L18.092 24.5375C17.9779 24.8169 17.6885 25.2359 17.0361 25.0769C17.0591 25.1098 15.3614 24.6649 15.3614 24.6649L14.2175 27.264L17.216 28.0005C17.7738 28.1383 18.3204 28.2825 18.8585 28.4183L17.905 32.191L20.2065 32.7569L21.1508 29.0242C21.7795 29.1924 22.3899 29.3476 22.987 29.4937L22.046 33.2089L24.3501 33.7748L25.3036 30.0091C29.2326 30.7418 32.1871 30.4463 33.4307 26.9445C34.4328 24.1249 33.3808 22.4985 31.3136 21.438C32.819 21.0959 33.953 20.12 34.2556 18.1043ZM28.9911 25.3789C28.2791 28.1984 23.4615 26.6742 21.8996 26.292L23.1649 21.2938C24.7268 21.6779 29.7353 22.4384 28.9911 25.3789ZM29.7038 18.0636C29.0541 20.6283 25.0444 19.3253 23.7437 19.0058L24.8908 14.4726C26.1915 14.792 30.3804 15.3883 29.7038 18.0636Z" fill="white"/>
</svg>
