<svg width="36" height="24" viewBox="0 0 36 24" fill="none" xmlns="http://www.w3.org/2000/svg">
<path d="M34.2 20H16.2C15.7226 20 15.2648 20.2107 14.9272 20.5858C14.5896 20.9609 14.4 21.4696 14.4 22C14.4 22.5304 14.5896 23.0391 14.9272 23.4142C15.2648 23.7893 15.7226 24 16.2 24H34.2C34.6774 24 35.1352 23.7893 35.4728 23.4142C35.8104 23.0391 36 22.5304 36 22C36 21.4696 35.8104 20.9609 35.4728 20.5858C35.1352 20.2107 34.6774 20 34.2 20ZM1.8 4H34.2C34.6774 4 35.1352 3.78929 35.4728 3.41421C35.8104 3.03914 36 2.53043 36 2C36 1.46957 35.8104 0.96086 35.4728 0.585787C35.1352 0.210714 34.6774 0 34.2 0H1.8C1.32261 0 0.864773 0.210714 0.527208 0.585787C0.189642 0.96086 0 1.46957 0 2C0 2.53043 0.189642 3.03914 0.527208 3.41421C0.864773 3.78929 1.32261 4 1.8 4ZM34.2 10H9C8.52261 10 8.06477 10.2107 7.72721 10.5858C7.38964 10.9609 7.2 11.4696 7.2 12C7.2 12.5304 7.38964 13.0391 7.72721 13.4142C8.06477 13.7893 8.52261 14 9 14H34.2C34.6774 14 35.1352 13.7893 35.4728 13.4142C35.8104 13.0391 36 12.5304 36 12C36 11.4696 35.8104 10.9609 35.4728 10.5858C35.1352 10.2107 34.6774 10 34.2 10Z" fill="white"/>
</svg>
