<svg width="81" height="80" viewBox="0 0 81 80" fill="none" xmlns="http://www.w3.org/2000/svg">
<path d="M40.5 40C38.5222 40 36.5888 40.5865 34.9443 41.6853C33.2998 42.7841 32.0181 44.3459 31.2612 46.1731C30.5043 48.0004 30.3063 50.0111 30.6922 51.9509C31.078 53.8907 32.0304 55.6725 33.4289 57.071C34.8275 58.4696 36.6093 59.422 38.5491 59.8078C40.4889 60.1937 42.4996 59.9956 44.3269 59.2388C46.1541 58.4819 47.7159 57.2002 48.8147 55.5557C49.9135 53.9112 50.5 51.9778 50.5 50C50.5 47.3478 49.4464 44.8043 47.5711 42.9289C45.6957 41.0535 43.1522 40 40.5 40ZM40.5 53.3333C39.8407 53.3333 39.1963 53.1378 38.6481 52.7715C38.0999 52.4053 37.6727 51.8847 37.4204 51.2756C37.1681 50.6665 37.1021 49.9963 37.2307 49.3497C37.3593 48.7031 37.6768 48.1091 38.143 47.6429C38.6092 47.1768 39.2031 46.8593 39.8497 46.7307C40.4963 46.6021 41.1665 46.6681 41.7756 46.9204C42.3847 47.1727 42.9053 47.5999 43.2716 48.1481C43.6379 48.6962 43.8333 49.3407 43.8333 50C43.8333 50.884 43.4822 51.7319 42.857 52.357C42.2319 52.9821 41.3841 53.3333 40.5 53.3333ZM63.8334 50C63.8334 49.3407 63.6379 48.6962 63.2716 48.1481C62.9053 47.5999 62.3847 47.1727 61.7756 46.9204C61.1665 46.6681 60.4963 46.6021 59.8497 46.7307C59.2031 46.8593 58.6092 47.1768 58.143 47.6429C57.6768 48.1091 57.3594 48.7031 57.2307 49.3497C57.1021 49.9963 57.1681 50.6665 57.4204 51.2756C57.6727 51.8847 58.1 52.4053 58.6481 52.7715C59.1963 53.1378 59.8407 53.3333 60.5 53.3333C61.3841 53.3333 62.2319 52.9821 62.857 52.357C63.4822 51.7319 63.8334 50.884 63.8334 50ZM67.1667 26.6666H57.1667C56.2826 26.6666 55.4348 27.0178 54.8097 27.6429C54.1845 28.2681 53.8334 29.1159 53.8334 30C53.8334 30.884 54.1845 31.7319 54.8097 32.357C55.4348 32.9821 56.2826 33.3333 57.1667 33.3333H67.1667C68.0507 33.3333 68.8986 33.6845 69.5237 34.3096C70.1488 34.9347 70.5 35.7826 70.5 36.6666V63.3333C70.5 64.2174 70.1488 65.0652 69.5237 65.6903C68.8986 66.3154 68.0507 66.6666 67.1667 66.6666H13.8333C12.9493 66.6666 12.1014 66.3154 11.4763 65.6903C10.8512 65.0652 10.5 64.2174 10.5 63.3333V36.6666C10.5 35.7826 10.8512 34.9347 11.4763 34.3096C12.1014 33.6845 12.9493 33.3333 13.8333 33.3333H23.8333C24.7174 33.3333 25.5652 32.9821 26.1904 32.357C26.8155 31.7319 27.1667 30.884 27.1667 30C27.1667 29.1159 26.8155 28.2681 26.1904 27.6429C25.5652 27.0178 24.7174 26.6666 23.8333 26.6666H13.8333C11.1812 26.6666 8.63764 27.7202 6.76228 29.5956C4.88691 31.4709 3.83334 34.0145 3.83334 36.6666V63.3333C3.83334 65.9855 4.88691 68.529 6.76228 70.4044C8.63764 72.2797 11.1812 73.3333 13.8333 73.3333H67.1667C69.8189 73.3333 72.3624 72.2797 74.2378 70.4044C76.1131 68.529 77.1667 65.9855 77.1667 63.3333V36.6666C77.1667 34.0145 76.1131 31.4709 74.2378 29.5956C72.3624 27.7202 69.8189 26.6666 67.1667 26.6666ZM17.1667 50C17.1667 50.6592 17.3622 51.3037 17.7284 51.8519C18.0947 52.4 18.6153 52.8273 19.2244 53.0796C19.8335 53.3319 20.5037 53.3979 21.1503 53.2692C21.7969 53.1406 22.3909 52.8232 22.857 52.357C23.3232 51.8908 23.6407 51.2969 23.7693 50.6503C23.8979 50.0037 23.8319 49.3334 23.5796 48.7243C23.3273 48.1153 22.9001 47.5947 22.3519 47.2284C21.8037 46.8621 21.1593 46.6666 20.5 46.6666C19.616 46.6666 18.7681 47.0178 18.143 47.6429C17.5179 48.2681 17.1667 49.1159 17.1667 50Z" fill="#CFCFCF"/>
<path d="M38.1334 32.3666C38.4504 32.6701 38.8242 32.908 39.2334 33.0666C39.6324 33.243 40.0638 33.3341 40.5 33.3341C40.9363 33.3341 41.3677 33.243 41.7667 33.0666C42.1759 32.908 42.5497 32.6701 42.8667 32.3666L50.5 24.8666C51.1454 24.2213 51.5079 23.346 51.5079 22.4333C51.5079 21.5206 51.1454 20.6453 50.5 20C49.8547 19.3546 48.9794 18.992 48.0667 18.992C47.154 18.992 46.2787 19.3546 45.6334 20L43.8334 21.9666V9.99996C43.8334 9.1159 43.4822 8.26806 42.857 7.64294C42.2319 7.01782 41.3841 6.66663 40.5 6.66663C39.616 6.66663 38.7681 7.01782 38.143 7.64294C37.5179 8.26806 37.1667 9.1159 37.1667 9.99996V21.9666L35.3667 20C34.7213 19.3546 33.846 18.992 32.9333 18.992C32.0207 18.992 31.1454 19.3546 30.5 20C29.8547 20.6453 29.4921 21.5206 29.4921 22.4333C29.4921 23.346 29.8547 24.2213 30.5 24.8666L38.1334 32.3666Z" fill="#F0B90B"/>
</svg>
