<svg width="81" height="80" viewBox="0 0 81 80" fill="none" xmlns="http://www.w3.org/2000/svg">
<path d="M10.5 22.5C10.5 19.1848 11.817 16.0054 14.1612 13.6612C16.5054 11.317 19.6848 10 23 10H58.01C61.3252 10 64.5046 11.317 66.8488 13.6612C69.193 16.0054 70.51 19.1848 70.51 22.5V35.0075L70.5 34.9975C68.5911 33.5629 66.4864 32.4095 64.25 31.5725V25H16.75V57.5C16.75 59.1576 17.4085 60.7473 18.5806 61.9194C19.7527 63.0915 21.3424 63.75 23 63.75H32.075C32.9121 65.9863 34.0655 68.0911 35.5 70L35.5075 70.01H23C19.6848 70.01 16.5054 68.693 14.1612 66.3488C11.817 64.0046 10.5 60.8252 10.5 57.51V22.5ZM40.5075 32.495V34.9925C38.6141 36.4139 36.9308 38.0955 35.5075 39.9875V34.995H25.52V55H30.5C30.5 56.71 30.6725 58.3825 31 60H23.0225C22.3595 60 21.7236 59.7366 21.2547 59.2678C20.7859 58.7989 20.5225 58.163 20.5225 57.5V32.495C20.5225 31.832 20.7859 31.1961 21.2547 30.7272C21.7236 30.2584 22.3595 29.995 23.0225 29.995H38.0075C38.6705 29.995 39.3064 30.2584 39.7753 30.7272C40.2441 31.1961 40.5075 31.832 40.5075 32.495Z" fill="#CFCFCF"/>
<path d="M42.1925 71.425L42.3075 71.035C42.691 69.7356 42.8065 68.3718 42.647 67.0264C42.4874 65.681 42.0561 64.3821 41.3793 63.2084C40.7024 62.0348 39.7942 61.0109 38.7096 60.1989C37.625 59.387 36.3868 58.8039 35.07 58.485C34.7573 56.2022 34.8164 53.8839 35.245 51.62C36.5492 51.296 37.7747 50.7125 38.8484 49.9043C39.922 49.096 40.8218 48.0797 41.4938 46.916C42.1659 45.7522 42.5965 44.465 42.7599 43.1311C42.9233 41.7972 42.8162 40.4441 42.445 39.1525C44.1917 37.6479 46.1706 36.4364 48.305 35.565C49.2395 36.5456 50.3635 37.326 51.6087 37.8591C52.854 38.3921 54.1946 38.6666 55.5491 38.6659C56.9037 38.6652 58.2439 38.3893 59.4886 37.855C60.7333 37.3207 61.8565 36.539 62.79 35.5575L63.07 35.2625C65.1541 36.0395 67.0934 37.16 68.8075 38.5775L68.6925 38.965C68.309 40.2644 68.1935 41.6282 68.353 42.9736C68.5126 44.319 68.9439 45.618 69.6207 46.7916C70.2976 47.9653 71.2058 48.9892 72.2904 49.8011C73.375 50.6131 74.6132 51.1962 75.93 51.515C76.2432 53.7986 76.1841 56.1178 75.755 58.3825C74.4508 58.7065 73.2252 59.29 72.1516 60.0983C71.078 60.9065 70.1782 61.9228 69.5062 63.0866C68.8341 64.2503 68.4035 65.5376 68.2401 66.8714C68.0767 68.2053 68.1838 69.5585 68.555 70.85C66.8083 72.3546 64.8293 73.5662 62.695 74.4375C61.7605 73.457 60.6365 72.6765 59.3913 72.1435C58.146 71.6104 56.8054 71.3359 55.4509 71.3366C54.0963 71.3373 52.7561 71.6132 51.5114 72.1475C50.2667 72.6819 49.1435 73.4635 48.21 74.445L47.93 74.7375C45.846 73.9613 43.9067 72.8416 42.1925 71.425ZM52.6175 59.9975C55.2825 61.5375 58.735 60.5475 60.3275 57.7875C61.9225 55.03 61.0525 51.5425 58.385 50.005C55.7175 48.465 52.265 49.455 50.6725 52.2125C49.0775 54.9725 49.9475 58.4575 52.615 59.9975H52.6175Z" fill="#F0B90B"/>
</svg>
