<svg width="68" height="67" viewBox="0 0 68 67" fill="none" xmlns="http://www.w3.org/2000/svg">
<path d="M9.66667 0C7.23552 0 4.90394 0.965771 3.18485 2.68485C1.46577 4.40394 0.5 6.73552 0.5 9.16667V50.8333C0.5 53.2645 1.46577 55.5961 3.18485 57.3151C4.90394 59.0342 7.23552 60 9.66667 60H30.5733C29.5743 58.4416 28.78 56.7612 28.21 55H9.66667C7.36667 55 5.5 53.1333 5.5 50.8333V9.16667C5.5 6.86667 7.36667 5 9.66667 5H51.3333C53.6333 5 55.5 6.86667 55.5 9.16667V27.71C57.2612 28.28 58.9416 29.0743 60.5 30.0733V9.16667C60.5 6.73552 59.5342 4.40394 57.8151 2.68485C56.0961 0.965771 53.7645 0 51.3333 0H9.66667Z" fill="#CFCFCF"/>
<path d="M50.3567 26.7199C50.4998 26.3414 50.5489 25.9337 50.4995 25.532C50.4501 25.1303 50.3039 24.7466 50.0733 24.414C49.8427 24.0815 49.5347 23.8099 49.1758 23.6228C48.817 23.4356 48.418 23.3386 48.0133 23.3399H31.3333C30.6703 23.3399 30.0344 23.6033 29.5655 24.0721C29.0967 24.541 28.8333 25.1768 28.8333 25.8399C28.8333 26.5029 29.0967 27.1388 29.5655 27.6077C30.0344 28.0765 30.6703 28.3399 31.3333 28.3399H40.4733C43.5953 27.033 46.9808 26.4781 50.3567 26.7199Z" fill="#CFCFCF"/>
<path d="M18 18.3399C16.0109 18.3399 14.1032 19.1301 12.6967 20.5366C11.2902 21.9431 10.5 23.8508 10.5 25.8399C10.5 27.829 11.2902 29.7367 12.6967 31.1432C14.1032 32.5497 16.0109 33.3399 18 33.3399C19.9891 33.3399 21.8968 32.5497 23.3033 31.1432C24.7098 29.7367 25.5 27.829 25.5 25.8399C25.5 23.8508 24.7098 21.9431 23.3033 20.5366C21.8968 19.1301 19.9891 18.3399 18 18.3399ZM15.5 25.8399C15.5 25.1769 15.7634 24.541 16.2322 24.0721C16.7011 23.6033 17.337 23.3399 18 23.3399C18.663 23.3399 19.2989 23.6033 19.7678 24.0721C20.2366 24.541 20.5 25.1769 20.5 25.8399C20.5 26.5029 20.2366 27.1388 19.7678 27.6077C19.2989 28.0765 18.663 28.3399 18 28.3399C17.337 28.3399 16.7011 28.0765 16.2322 27.6077C15.7634 27.1388 15.5 26.5029 15.5 25.8399Z" fill="#CFCFCF"/>
<path d="M10.5 44.1666C10.5 43.1817 10.694 42.2064 11.0709 41.2965C11.4478 40.3866 12.0003 39.5598 12.6967 38.8633C13.3931 38.1669 14.2199 37.6144 15.1299 37.2375C16.0398 36.8606 17.0151 36.6666 18 36.6666C18.9849 36.6666 19.9602 36.8606 20.8701 37.2375C21.7801 37.6144 22.6069 38.1669 23.3033 38.8633C23.9997 39.5598 24.5522 40.3866 24.9291 41.2965C25.306 42.2064 25.5 43.1817 25.5 44.1666C25.5 46.1557 24.7098 48.0634 23.3033 49.4699C21.8968 50.8764 19.9891 51.6666 18 51.6666C16.0109 51.6666 14.1032 50.8764 12.6967 49.4699C11.2902 48.0634 10.5 46.1557 10.5 44.1666ZM18 41.6666C17.337 41.6666 16.7011 41.93 16.2322 42.3989C15.7634 42.8677 15.5 43.5036 15.5 44.1666C15.5 44.8297 15.7634 45.4656 16.2322 45.9344C16.7011 46.4032 17.337 46.6666 18 46.6666C18.663 46.6666 19.2989 46.4032 19.7678 45.9344C20.2366 45.4656 20.5 44.8297 20.5 44.1666C20.5 43.5036 20.2366 42.8677 19.7678 42.3989C19.2989 41.93 18.663 41.6666 18 41.6666Z" fill="#CFCFCF"/>
<path d="M48.0133 15H13.0133C12.3503 15 11.7144 14.7366 11.2455 14.2678C10.7767 13.7989 10.5133 13.163 10.5133 12.5C10.5133 11.837 10.7767 11.2011 11.2455 10.7322C11.7144 10.2634 12.3503 10 13.0133 10H48.0133C48.6763 10 49.3122 10.2634 49.7811 10.7322C50.2499 11.2011 50.5133 11.837 50.5133 12.5C50.5133 13.163 50.2499 13.7989 49.7811 14.2678C49.3122 14.7366 48.6763 15 48.0133 15Z" fill="#CFCFCF"/>
<path d="M67.1667 48.3333C67.1667 43.471 65.2351 38.8079 61.797 35.3697C58.3588 31.9315 53.6956 30 48.8333 30C43.971 30 39.3079 31.9315 35.8697 35.3697C32.4315 38.8079 30.5 43.471 30.5 48.3333C30.5 53.1956 32.4315 57.8588 35.8697 61.297C39.3079 64.7351 43.971 66.6667 48.8333 66.6667C53.6956 66.6667 58.3588 64.7351 61.797 61.297C65.2351 57.8588 67.1667 53.1956 67.1667 48.3333ZM50.5033 58.3433C50.5033 58.7854 50.3277 59.2093 50.0152 59.5218C49.7026 59.8344 49.2787 60.01 48.8367 60.01C48.3946 60.01 47.9707 59.8344 47.6581 59.5218C47.3456 59.2093 47.17 58.7854 47.17 58.3433V50H38.82C38.378 50 37.954 49.8244 37.6415 49.5118C37.3289 49.1993 37.1533 48.7754 37.1533 48.3333C37.1533 47.8913 37.3289 47.4674 37.6415 47.1548C37.954 46.8423 38.378 46.6667 38.82 46.6667H47.1667V38.3333C47.1667 37.8913 47.3423 37.4674 47.6548 37.1548C47.9674 36.8423 48.3913 36.6667 48.8333 36.6667C49.2754 36.6667 49.6993 36.8423 50.0118 37.1548C50.3244 37.4674 50.5 37.8913 50.5 38.3333V46.6667H58.8433C59.2854 46.6667 59.7093 46.8423 60.0218 47.1548C60.3344 47.4674 60.51 47.8913 60.51 48.3333C60.51 48.7754 60.3344 49.1993 60.0218 49.5118C59.7093 49.8244 59.2854 50 58.8433 50H50.5033V58.3433Z" fill="#F0B90B"/>
</svg>
