<svg width="81" height="80" viewBox="0 0 81 80" fill="none" xmlns="http://www.w3.org/2000/svg">
<path fill-rule="evenodd" clip-rule="evenodd" d="M7.16666 16.6667C7.16666 14.0145 8.22023 11.471 10.0956 9.59559C11.971 7.72023 14.5145 6.66666 17.1667 6.66666H50.5C53.1522 6.66666 55.6957 7.72023 57.5711 9.59559C59.4464 11.471 60.5 14.0145 60.5 16.6667V36.6667C60.5 39.3188 59.4464 41.8624 57.5711 43.7377C55.6957 45.6131 53.1522 46.6667 50.5 46.6667H38.5467L26.19 59.0233C25.7238 59.4894 25.1299 59.8067 24.4834 59.9353C23.8369 60.0638 23.1668 59.9978 22.5578 59.7456C21.9488 59.4934 21.4283 59.0662 21.062 58.5182C20.6957 57.9702 20.5001 57.3258 20.5 56.6667V46.6667H17.1667C14.5145 46.6667 11.971 45.6131 10.0956 43.7377C8.22023 41.8624 7.16666 39.3188 7.16666 36.6667V16.6667ZM73.8333 30V50C73.8333 53.3333 71.8333 60 63.8333 60H60.5V70C60.5 71.11 59.8333 73.3333 57.1667 73.3333C56.49 73.3333 55.94 73.19 55.5 72.9567L42.5433 60H30.5L40.5 50H50.5C54.9433 50 63.8333 47.3333 63.8333 36.6667V20C67.1667 20 73.8333 22 73.8333 30Z" fill="#CFCFCF"/>
<path fill-rule="evenodd" clip-rule="evenodd" d="M73.8333 30V50C73.8333 53.3334 71.8333 60 63.8333 60H60.5V70C60.5 71.11 59.8333 73.3334 57.1667 73.3334C56.49 73.3334 55.94 73.19 55.5 72.9567L42.5433 60H30.5L40.5 50H50.5C54.9433 50 63.8333 47.3334 63.8333 36.6667V20C67.1667 20 73.8333 22 73.8333 30Z" fill="#F0B90B"/>
</svg>
