<svg width="50" height="43" viewBox="0 0 50 43" fill="none" xmlns="http://www.w3.org/2000/svg">
<path d="M24.9999 40.1791C35.3092 40.1791 43.6666 31.9436 43.6666 21.7846C43.6666 11.6257 35.3092 3.39019 24.9999 3.39019C14.6906 3.39019 6.33325 11.6257 6.33325 21.7846C6.33325 31.9436 14.6906 40.1791 24.9999 40.1791Z" fill="white"/>
<path d="M25 1.09088C20.8466 1.09088 16.7864 2.30455 13.333 4.57841C9.87959 6.85226 7.18797 10.0842 5.59854 13.8655C4.0091 17.6468 3.59323 21.8076 4.40352 25.8218C5.21381 29.836 7.21386 33.5232 10.1508 36.4173C13.0876 39.3114 16.8295 41.2823 20.9031 42.0807C24.9767 42.8792 29.1991 42.4694 33.0363 40.9032C36.8735 39.3369 40.1533 36.6845 42.4608 33.2815C44.7683 29.8784 45.9999 25.8775 45.9999 21.7846C46.0079 19.075 45.4743 16.3903 44.4294 13.8839C43.3845 11.3775 41.8489 9.09841 39.9102 7.17682C37.9715 5.25522 35.6677 3.72874 33.1303 2.68451C30.593 1.64028 27.8717 1.09877 25.122 1.09088H25ZM25.3559 22.4861L23.1695 29.7515H34.8643C34.9418 29.7488 35.0191 29.7612 35.0917 29.7879C35.1643 29.8147 35.2308 29.8553 35.2875 29.9074C35.3441 29.9595 35.3898 30.0222 35.4219 30.0917C35.454 30.1612 35.4719 30.2363 35.4745 30.3127V30.5031L34.4576 33.9604C34.4127 34.1239 34.3128 34.2675 34.1742 34.3676C34.0356 34.4678 33.8666 34.5185 33.6949 34.5115H15.7966L18.7966 24.4402L15.4407 25.4424L16.2034 23.1375L19.5593 22.1354L23.7796 8.0055C23.8261 7.84292 23.9264 7.70033 24.0646 7.60045C24.2029 7.50056 24.371 7.44913 24.5423 7.45433H29.0677C29.1452 7.45165 29.2225 7.46405 29.2951 7.49081C29.3677 7.51757 29.4342 7.55817 29.4909 7.61029C29.5475 7.66241 29.5932 7.72503 29.6253 7.79456C29.6574 7.86409 29.6753 7.93918 29.6779 8.01552V8.20592L26.1186 20.1311L29.4745 19.129L28.7627 21.5341L25.3559 22.4861Z" fill="#345D9D"/>
</svg>
