<svg width="224" height="29" viewBox="0 0 224 29" fill="none" xmlns="http://www.w3.org/2000/svg">
<path fill-rule="evenodd" clip-rule="evenodd" d="M47.4365 18.0227V18.0798C47.4365 20.9662 45.053 22.4367 41.4753 22.4088H33.8962V6.53538H41.3048C44.5417 6.53538 46.5576 8.14798 46.5576 10.6385V10.6944C46.5576 12.477 45.5922 13.4958 44.4565 14.1187C46.3019 14.8254 47.4377 15.9013 47.4377 18.0227H47.4365ZM40.5391 12.959C42.0997 12.959 43.0651 12.477 43.0651 11.2894V11.2323C43.0651 10.1856 42.2422 9.59178 40.7656 9.59178H37.3023V12.959H40.5391ZM41.4765 19.3815C43.0079 19.3815 43.9452 18.8436 43.9452 17.656V17.5989C43.9452 16.523 43.1503 15.8734 41.362 15.8734H37.3023V19.3815H41.4765ZM54.7891 6.56331V22.4379H51.2686V6.56331H54.7891ZM73.638 6.56331V22.4379H70.658L62.9366 12.3373V22.4379H59.4721V6.56331H62.7102L70.1748 16.3542V6.56331H73.6393H73.638ZM86.2141 6.45038L93.0555 22.4367H89.3378L87.8892 18.8715H81.1623L79.7137 22.4367H76.1372L82.9785 6.45038H86.2154H86.2141ZM82.4392 15.7884H86.6694L84.5683 10.6385L82.438 15.7872L82.4392 15.7884ZM109.749 6.56331V22.4379H106.769L99.0459 12.3373V22.4379H95.5826V6.56331H98.8195L106.285 16.3542V6.56331H109.749ZM125.619 17.6268L127.861 19.8612C126.214 21.617 124.398 22.6917 121.331 22.6917C116.647 22.6917 113.156 19.0694 113.156 14.5146V14.4575C113.156 9.95972 116.591 6.25245 121.474 6.25245C124.483 6.25245 126.271 7.27125 127.748 8.71384L125.504 11.2882C124.255 10.1856 123.006 9.50678 121.417 9.50678C118.72 9.50678 116.79 11.7411 116.79 14.4575V14.5146C116.79 17.231 118.691 19.4944 121.417 19.4944C123.262 19.4944 124.37 18.7586 125.619 17.6268ZM142.822 19.3244V22.4088H130.7V6.53538H142.709V9.64764H134.163V12.874H141.686V15.9863H134.163V19.3256H142.822V19.3244ZM12.5761 0L4.85467 4.44192L7.69345 6.08123L12.5749 3.28105L17.4588 6.08123L20.2976 4.44192L12.5761 0ZM17.4576 8.40298L20.2976 10.0435V13.3258L15.4149 16.1272V21.73L12.5761 23.3705L9.73733 21.73V16.1272L4.85467 13.3258V10.0435L7.69345 8.40298L12.5749 11.2044L17.4588 8.40298H17.4576ZM20.2976 15.6463V18.9286L17.4588 20.5691V17.2868L20.2976 15.6475V15.6463ZM17.4308 22.8896L22.3122 20.0882V14.4866L25.1522 12.8449V21.73L17.4308 26.1719V22.8896ZM22.3122 8.88385L19.4747 7.24332L22.3134 5.60158L25.1522 7.24332V10.5256L22.3134 12.1661V8.88385H22.3122ZM9.73855 27.3607V24.0772L12.5773 25.7177L15.4161 24.0772V27.3595L12.5773 29L9.73855 27.3595V27.3607ZM7.69102 20.5679L4.85467 18.9286V15.6463L7.69345 17.2868V20.5691L7.69102 20.5679ZM12.5749 8.88263L9.73611 7.24332L12.5749 5.60158L15.4137 7.24332L12.5749 8.88385V8.88263ZM5.67757 7.24332L2.83879 8.88385V12.1661L0 10.5256V7.24332L2.83879 5.60158L5.67757 7.24332ZM0 12.8449L2.83879 14.4866V20.0882L7.72023 22.8896V26.1719L0.00121732 21.73V12.8449H0ZM152.007 14.6494C152.007 19.2334 155.47 22.8556 160.126 22.8556C163.135 22.8556 164.952 21.7506 166.599 20.0263L164.81 18.2146C163.447 19.4884 162.198 20.2801 160.239 20.2801C157.202 20.2801 154.988 17.7337 154.988 14.5935C154.988 11.4521 157.174 8.96278 160.239 8.96278C162.057 8.96278 163.419 9.7545 164.697 10.9421L166.485 8.87777C164.952 7.43518 163.193 6.41638 160.239 6.41638C155.414 6.41638 152.007 10.1224 152.007 14.6494ZM171.85 22.5727V15.8661H179.458V22.5727H182.269V6.67017H179.458V13.2918H171.85V6.67017H169.041V22.5727H171.85ZM198.167 22.5727H201.119L194.05 6.55724H191.467L184.455 22.5727H187.322L188.969 18.7233H196.52L198.167 22.5727ZM190.02 16.2632L192.744 9.89657L195.498 16.262H190.02V16.2632ZM206.2 22.5727V6.67017H203.391V22.5727H206.2ZM224 6.67017H221.218V17.6487L212.673 6.67138H210.09V22.5715H212.843V11.2542L221.645 22.5715H224V6.67017Z" fill="#F0B90B"/>
</svg>
