<svg width="50" height="44" viewBox="0 0 50 44" fill="none" xmlns="http://www.w3.org/2000/svg">
<path d="M42.6928 11.1907C48.6646 21.129 45.4487 34.0275 35.509 39.9998C25.5729 45.9692 12.674 42.7529 6.70361 32.8141C0.730004 22.8757 3.94536 9.97674 13.8823 4.00639C23.8212 -1.96582 36.7206 1.25184 42.6928 11.1907Z" fill="white"/>
<path d="M24.7313 6C18.2631 6.02598 13.026 11.2631 13 17.7313C13 19.0266 13.2091 20.3133 13.6186 21.5419C13.9242 22.3782 14.8311 22.8286 15.6823 22.57C16.505 22.2545 16.9418 21.3551 16.6795 20.5138C16.3318 19.5562 16.1772 18.5404 16.2229 17.5234C16.364 12.8517 20.2649 9.1784 24.9366 9.31944C29.6084 9.46049 33.2816 13.3614 33.1406 18.0331C33.0082 22.4067 29.5638 25.9587 25.1952 26.2247C25.1952 26.2247 23.5485 26.3249 22.7294 26.4252C22.4276 26.4685 22.1282 26.5279 21.8325 26.6033C21.7904 26.6466 21.7224 26.6466 21.6791 26.6046L21.6778 26.6033C21.6481 26.565 21.6481 26.5105 21.6778 26.4722L21.9327 25.0815L23.4792 18.1259C23.6648 17.2574 23.1117 16.4025 22.2432 16.2169C21.3747 16.0313 20.5198 16.5844 20.3342 17.4529C20.3342 17.4529 16.656 34.4782 16.656 34.6328C16.4456 35.4605 16.9455 36.3018 17.7732 36.5122C17.7818 36.5146 17.7917 36.5171 17.8004 36.5184H17.8858C18.7122 36.7324 19.556 36.235 19.7688 35.4086C19.7725 35.395 19.7762 35.3814 19.7787 35.3665C19.7762 35.3405 19.7762 35.3145 19.7787 35.2898C19.8245 35.0894 20.2884 32.824 20.2884 32.824C20.6398 31.1142 22.0181 29.804 23.7427 29.5392C24.0978 29.4848 25.5899 29.3846 25.5899 29.3846C32.0333 28.7425 36.7359 22.9981 36.0926 16.5547C35.5062 10.6779 30.6377 6.15341 24.7313 6Z" fill="#1E1E1E"/>
<path d="M25.4427 33.0492C24.3849 32.829 23.3506 33.5082 23.1303 34.5648C23.1279 34.5747 23.1266 34.5846 23.1242 34.5945C22.8953 35.6449 23.5609 36.6829 24.6125 36.9118C24.6138 36.9118 24.615 36.9118 24.6162 36.913H24.6707C25.7 37.1617 26.7356 36.5282 26.983 35.5001C26.9855 35.4927 26.9867 35.484 26.9892 35.4766V35.369C27.1711 34.3075 26.4931 33.2892 25.4427 33.0492Z" fill="#E6007A"/>
</svg>
