<svg width="50" height="43" viewBox="0 0 50 43" fill="none" xmlns="http://www.w3.org/2000/svg">
<path d="M24.9999 40.1791C35.3092 40.1791 43.6666 31.9436 43.6666 21.7846C43.6666 11.6257 35.3092 3.3902 24.9999 3.3902C14.6906 3.3902 6.33325 11.6257 6.33325 21.7846C6.33325 31.9436 14.6906 40.1791 24.9999 40.1791Z" fill="white"/>
<path d="M33.5376 12.0909H37.0282L29.764 19.2833C27.1334 21.8866 22.8683 21.8866 20.2357 19.2833L12.9688 12.0909H16.4621L21.981 17.5546C22.7851 18.3471 23.8688 18.7913 24.9978 18.7913C26.1268 18.7913 27.2104 18.3471 28.0145 17.5546L33.5376 12.0909Z" fill="#23292F"/>
<path d="M16.4172 32.0909H12.9243L20.2356 24.8541C22.8663 22.2508 27.1314 22.2508 29.7639 24.8541L37.0753 32.0909H33.5847L28.0187 26.5829C27.2146 25.7904 26.1309 25.3461 25.0019 25.3461C23.8729 25.3461 22.7893 25.7904 21.9852 26.5829L16.4172 32.0909Z" fill="#23292F"/>
</svg>
