<svg width="50" height="43" viewBox="0 0 50 43" fill="none" xmlns="http://www.w3.org/2000/svg">
<path fill-rule="evenodd" clip-rule="evenodd" d="M9.15546 0.211191L0.0387017 19.143C0.00400985 19.2134 -0.00698378 19.293 0.00732853 19.37C0.0216409 19.4471 0.0605083 19.5175 0.118247 19.5712L24.7404 42.8966C24.8103 42.963 24.9035 43 25.0004 43C25.0973 43 25.1905 42.963 25.2604 42.8966L49.8826 19.5726C49.9403 19.519 49.9792 19.4485 49.9935 19.3715C50.0078 19.2944 49.9968 19.2149 49.9621 19.1445L40.8454 0.212647C40.8159 0.149066 40.7686 0.0952048 40.7091 0.0575006C40.6495 0.0197964 40.5802 -0.000155967 40.5095 2.81828e-05H9.49426C9.4232 -0.000845831 9.3534 0.0186259 9.29328 0.0560944C9.23317 0.093563 9.1853 0.147428 9.15546 0.211191Z" fill="#50AF95"/>
<path fill-rule="evenodd" clip-rule="evenodd" d="M28.1635 21.0871C27.9867 21.1002 27.0734 21.1541 25.0362 21.1541C23.4158 21.1541 22.2653 21.106 21.8617 21.0871C15.5998 20.8148 10.9257 19.7371 10.9257 18.4468C10.9257 17.1566 15.5998 16.0804 21.8617 15.8037V20.0138C22.2712 20.0429 23.4438 20.1114 25.0642 20.1114C27.0086 20.1114 27.9823 20.0313 28.1576 20.0153V15.8066C34.4063 16.0818 39.07 17.1595 39.07 18.4468C39.07 19.7342 34.4078 20.8119 28.1576 21.0857L28.1635 21.0871ZM28.1635 15.3712V11.6037H36.884V5.85864H13.1412V11.6037H21.8603V15.3697C14.7734 15.6915 9.44385 17.0794 9.44385 18.7425C9.44385 20.4056 14.7734 21.792 21.8603 22.1153V34.1879H28.162V22.1109C35.2327 21.789 40.5534 20.4027 40.5534 18.741C40.5534 17.0794 35.2371 15.693 28.162 15.3697L28.1635 15.3712Z" fill="white"/>
</svg>
