<svg width="101" height="101" viewBox="0 0 101 101" fill="none" xmlns="http://www.w3.org/2000/svg">
<path d="M44.625 64.7083C47.875 67.9583 53.1667 67.9583 56.4167 64.7083C58.625 62.4999 68.5417 47.1249 74.7083 37.4999C75.9167 35.6249 73.7083 33.4166 71.8333 34.6249C62.2083 40.7916 46.8333 50.7083 44.625 52.9166C41.3333 56.2083 41.3333 61.4583 44.625 64.7083Z" fill="#F0B90B"/>
<path d="M81.5833 42.2083C81.5833 42.25 81.5416 42.2917 81.5416 42.2917C80.7916 43.4583 80.7499 44.9167 81.2499 46.1667C83.2446 50.8604 84.1068 55.9576 83.7666 61.0462C83.4264 66.1348 81.8934 71.072 79.2916 75.4583L21.7083 75.5833C18.7431 70.4985 17.1761 64.7196 17.1666 58.8333C17.1666 40.4583 32.1249 25.5 50.4999 25.5H51.4583C55.5833 25.625 59.4999 26.5417 63.1666 28.0417C64.4583 28.5833 65.9166 28.5 67.0833 27.75C67.1249 27.75 67.1249 27.7083 67.1666 27.7083C69.9583 25.9167 69.5833 21.75 66.5416 20.4167C61.9583 18.4583 56.9583 17.2917 51.7083 17.125C51.2916 17.1667 50.8749 17.1667 50.4999 17.1667C27.4999 17.1667 8.83325 35.8333 8.83325 58.8333C8.83325 66.5 10.9166 73.6667 14.5416 79.7917C16.0416 82.3334 18.7916 83.8333 21.7083 83.8333H79.2916C82.2083 83.8333 84.9583 82.3334 86.4583 79.7917C90.2932 73.2826 92.2677 65.8458 92.1666 58.2917C92.0801 52.9879 90.9621 47.7516 88.8749 42.875C87.5833 39.7917 83.3749 39.4167 81.5833 42.2083Z" fill="#F0B90B"/>
</svg>
