<svg width="95" height="96" viewBox="0 0 95 96" fill="none" xmlns="http://www.w3.org/2000/svg">
<path d="M81 34.2917V14.6667H61.4167L47.5 0.875L33.7917 14.6667H14.1667V34.2917L0.375 48L14.1667 61.9167V81.5H33.7917L47.5 95.2917L61.4167 81.5H81V61.9167L94.7917 48L81 34.2917ZM34.2917 27.375C38.375 27.375 41.6667 30.6667 41.6667 34.7917C41.6667 36.7476 40.8897 38.6235 39.5066 40.0066C38.1235 41.3897 36.2476 42.1667 34.2917 42.1667C30.1667 42.1667 26.875 38.875 26.875 34.7917C26.875 30.6667 30.1667 27.375 34.2917 27.375ZM60.9167 68.8333C56.8333 68.8333 53.5417 65.5 53.5417 61.4167C53.5417 59.4607 54.3187 57.5848 55.7018 56.2018C57.0848 54.8187 58.9607 54.0417 60.9167 54.0417C65 54.0417 68.3333 57.3333 68.3333 61.4167C68.3333 63.3837 67.5519 65.2701 66.161 66.661C64.7701 68.0519 62.8837 68.8333 60.9167 68.8333ZM32.9167 68.9583L26.6667 62.7083L62.2083 27.1667L68.4583 33.4167L32.9167 68.9583Z" fill="#F0B90B"/>
</svg>
