<svg width="101" height="100" viewBox="0 0 101 100" fill="none" xmlns="http://www.w3.org/2000/svg">
<path d="M22.375 12.5C19.8886 12.5 17.504 13.4877 15.7459 15.2459C13.9877 17.004 13 19.3886 13 21.875V78.125C13 80.6114 13.9877 82.996 15.7459 84.7541C17.504 86.5123 19.8886 87.5 22.375 87.5H78.625C81.1114 87.5 83.496 86.5123 85.2541 84.7541C87.0123 82.996 88 80.6114 88 78.125V21.875C88 19.3886 87.0123 17.004 85.2541 15.2459C83.496 13.4877 81.1114 12.5 78.625 12.5H22.375ZM25.5 28.125C25.5 27.2962 25.8292 26.5013 26.4153 25.9153C27.0013 25.3292 27.7962 25 28.625 25H39.0417C39.8705 25 40.6653 25.3292 41.2514 25.9153C41.8374 26.5013 42.1667 27.2962 42.1667 28.125C42.1667 28.9538 41.8374 29.7487 41.2514 30.3347C40.6653 30.9208 39.8705 31.25 39.0417 31.25H36.1667L43.3333 38.4167C43.6404 38.7028 43.8866 39.0478 44.0574 39.4311C44.2282 39.8144 44.3201 40.2282 44.3275 40.6478C44.3349 41.0674 44.2577 41.4842 44.1005 41.8733C43.9433 42.2624 43.7094 42.6159 43.4127 42.9127C43.1159 43.2094 42.7624 43.4433 42.3733 43.6005C41.9842 43.7577 41.5674 43.8349 41.1478 43.8275C40.7282 43.8201 40.3144 43.7282 39.9311 43.5574C39.5478 43.3866 39.2028 43.1404 38.9167 42.8333L31.75 35.6667V38.5458C31.75 39.3746 31.4208 40.1695 30.8347 40.7555C30.2487 41.3416 29.4538 41.6708 28.625 41.6708C27.7962 41.6708 27.0013 41.3416 26.4153 40.7555C25.8292 40.1695 25.5 39.3746 25.5 38.5458V28.125ZM74.5833 74.0875C73.9978 74.6737 73.2035 75.0034 72.375 75.0042H61.9583C61.1295 75.0042 60.3347 74.6749 59.7486 74.0889C59.1626 73.5028 58.8333 72.708 58.8333 71.8792C58.8333 71.0504 59.1626 70.2555 59.7486 69.6695C60.3347 69.0834 61.1295 68.7542 61.9583 68.7542H64.8333L57.6667 61.5875C57.0971 60.9984 56.7818 60.2092 56.7885 59.3898C56.7952 58.5704 57.1235 57.7865 57.7027 57.2068C58.2818 56.6271 59.0654 56.2981 59.8848 56.2906C60.7042 56.2831 61.4937 56.5977 62.0833 57.1667L69.25 64.3333V61.4583C69.25 60.6295 69.5792 59.8347 70.1653 59.2486C70.7513 58.6626 71.5462 58.3333 72.375 58.3333C73.2038 58.3333 73.9987 58.6626 74.5847 59.2486C75.1708 59.8347 75.5 60.6295 75.5 61.4583V71.8792C75.4993 72.7077 75.1696 73.502 74.5833 74.0875ZM75.5 28.1292V38.5458C75.5 39.3746 75.1708 40.1695 74.5847 40.7555C73.9987 41.3416 73.2038 41.6708 72.375 41.6708C71.5462 41.6708 70.7513 41.3416 70.1653 40.7555C69.5792 40.1695 69.25 39.3746 69.25 38.5458V35.6708L62.0833 42.8375C61.7949 43.1358 61.45 43.3737 61.0686 43.5373C60.6873 43.7009 60.2772 43.7869 59.8623 43.7903C59.4473 43.7938 59.0359 43.7145 58.6519 43.5572C58.2679 43.3999 57.9191 43.1677 57.6258 42.8741C57.3326 42.5806 57.1007 42.2315 56.9437 41.8474C56.7868 41.4633 56.7079 41.0518 56.7117 40.6368C56.7155 40.2219 56.8019 39.8119 56.9659 39.4307C57.1298 39.0495 57.3681 38.7048 57.6667 38.4167L64.8333 31.25H61.9583C61.1295 31.25 60.3347 30.9208 59.7486 30.3347C59.1626 29.7487 58.8333 28.9538 58.8333 28.125C58.8333 27.2962 59.1626 26.5013 59.7486 25.9153C60.3347 25.3292 61.1295 25 61.9583 25H72.375C73.2038 25 73.9987 25.3292 74.5847 25.9153C75.1708 26.5013 75.5 27.2962 75.5 28.125V28.1292ZM26.4167 74.0833C25.8304 73.4978 25.5007 72.7035 25.5 71.875V61.4583C25.5 60.6295 25.8292 59.8347 26.4153 59.2486C27.0013 58.6626 27.7962 58.3333 28.625 58.3333C29.4538 58.3333 30.2487 58.6626 30.8347 59.2486C31.4208 59.8347 31.75 60.6295 31.75 61.4583V64.3292L38.9167 57.1625C39.5091 56.6105 40.2926 56.31 41.1022 56.3243C41.9118 56.3386 42.6842 56.6665 43.2568 57.2391C43.8293 57.8116 44.1573 58.5841 44.1716 59.3937C44.1858 60.2032 43.8853 60.9868 43.3333 61.5792L36.1667 68.75H39.0458C39.8746 68.75 40.6695 69.0792 41.2555 69.6653C41.8416 70.2513 42.1708 71.0462 42.1708 71.875C42.1708 72.7038 41.8416 73.4987 41.2555 74.0847C40.6695 74.6708 39.8746 75 39.0458 75H28.625C27.7965 74.9993 27.0022 74.6696 26.4167 74.0833Z" fill="#F0B90B"/>
</svg>
